<svg xmlns="http://www.w3.org/2000/svg" width="1370.614" height="977.669" viewBox="0 0 1370.614 977.669">
  <g id="undraw_reading_time_re_phf7" transform="translate(619.483 421.254)">
    <path id="Path_158" data-name="Path 158" d="M0,20.887H159.266V16a16,16,0,0,0-16-16H16A16,16,0,0,0,0,16Z" transform="translate(70.98 532.95)" fill="#e6e6e6"/>
    <path id="Path_159" data-name="Path 159" d="M680.821,705.718l-4.843-1.951c50.677-125.789,45.795-284.482,2.956-420.613A85.005,85.005,0,0,1,703.7,193.22c24.865-22.189,59.145-27.594,89.467-14.108,29.93,13.314,34.056,36.505,34.056,59.583H822c0-24.635-5.265-43.384-30.957-54.812-28.419-12.639-60.555-7.569-83.867,13.234a79.838,79.838,0,0,0-23.261,84.469C727.248,419.289,731.844,579.072,680.821,705.718Z" transform="translate(-526.48 -171.793)" fill="#e6e6e6"/>
    <ellipse id="Ellipse_19" data-name="Ellipse 19" cx="18.276" cy="18.276" rx="18.276" ry="18.276" transform="translate(278.548 107.372)" fill="#e6e6e6"/>
    <path id="Path_160" data-name="Path 160" d="M655.979,329.3v-34.63h-5.385V329.3a7.179,7.179,0,1,0,5.385,0Z" transform="translate(-331.007 -171.793)" fill="#e6e6e6"/>
    <path id="Path_161" data-name="Path 161" d="M734.223,268.068A30.06,30.06,0,0,0,704.2,238.043H654.59a30.025,30.025,0,0,0,0,60.051H704.2a30.06,30.06,0,0,0,30.025-30.026Z" transform="translate(-383.223 -171.793)" fill="#6c63ff"/>
    <path id="Path_162" data-name="Path 162" d="M651.607,454.005c-4.981-63.723-30.447-94.084-14.14-113.123,15.619-18.238,59.617-14.47,87.872,3.03,76.212,47.2,104.134,235.332,6.06,327.249C638.2,758.5,461.582,730.53,422.331,659.04c-9.159-16.681-16.434-45.922-3.03-63.632,33.278-43.967,154.271,35.669,208.066-14.14C659.247,551.749,654.34,488.975,651.607,454.005Z" transform="translate(-230.711 -171.793)" fill="#3f3d56"/>
    <path id="Path_163" data-name="Path 163" d="M603.9,422.347a7.822,7.822,0,0,1,3.924,10.18,7.511,7.511,0,0,1-.6,1.087l16.358,21.842-8.163,12.2-19.174-32.343a7.8,7.8,0,0,1-2.373-9.222,7.465,7.465,0,0,1,9.838-3.828Q603.8,422.3,603.9,422.347Z" transform="translate(-241.259 -171.793)" fill="#ffb6b6"/>
    <path id="Path_164" data-name="Path 164" d="M531.536,460.005c-1.071.949,1.9,2.121,5.04.273.9-.535,1.283-.758,1.384-.616.253.353-1.222,2.959-.828,8.747.242,3.454,5.979,9.949,12.494,16.282,8.807,8.565,19.049,16.827,19.049,16.827l3.6-2.879,37.7-30.23,6.363-8.807a62.677,62.677,0,0,0-2.616-10.232,111.535,111.535,0,0,0-5.676-13.474c-1.172-2.374-2.374-4.636-3.525-6.717l-20.2,22.261-16.928,18.645s-4.929-7.939-8.747-10.1a3.637,3.637,0,0,0-1.616-.555c-3.858-.182-4.091-2.283.384-6.858s-1.172-.3-5.151-1.535,0,0-.838-3.081-12-9.262-12-9.262l-.465.414-8.434,7.444-2.414,2.131s2.636,7.232,3.363,8.757S532.6,459.046,531.536,460.005Z" transform="translate(-168.885 -171.793)" fill="#6c63ff"/>
    <path id="Path_165" data-name="Path 165" d="M568.243,428.521l-.411-11.141,42.776-6.887.607,16.442Z" transform="translate(-427.916 0)" fill="#ffb6b6"/>
    <path id="Path_166" data-name="Path 166" d="M855.185,603.668l.406-17.838-7.626.281-12.311-16.49a4.766,4.766,0,0,0-8.583,3.027l.782,21.19,7.678,3.374-7.49,1.7.295,7.989Z" transform="translate(-707.092 -171.793)" fill="#2f2e41"/>
    <path id="Path_167" data-name="Path 167" d="M817.473,604.651l-135.488,3.435s-58.508,3.379-72.236-5.551l-14.476-1.828-.785-21.264s8.852.065,13.942-2.306,1.552-5.273,6.4-2.42,4.34,3.2,8.092,1.885,175.794-27.534,175.794-27.534Z" transform="translate(-436.397 -171.793)" fill="#2f2e41"/>
    <path id="Path_168" data-name="Path 168" d="M526.047,423.631l-7.879-7.887L544.843,381.6l11.628,11.642Z" transform="translate(-323.508 0)" fill="#ffb6b6"/>
    <path id="Path_169" data-name="Path 169" d="M808.155,588.562l-11.835-13.353-5.4,5.393-20.241-3.716a4.767,4.767,0,0,0-4.233,8.057l14.985,15,7.923-2.748-4.332,6.344,5.65,5.657Z" transform="translate(-597.643 -171.793)" fill="#2f2e41"/>
    <path id="Path_170" data-name="Path 170" d="M770.058,530.449l-1.347,31.31c-1.586,36.859-42.178,59.168-73.654,39.923q-.87-.532-1.746-1.1s-11.933-3.2-11.57-8.279-2.553-7.545-5.133-6.161-36.357-46.553-36.357-46.553-70.178,35.006-85.66,43.247c0,0-14.556-22.759-13.5-22.521s86.819-59.788,86.819-59.788,13.972-14.14,31.3-4.8c.361,1.371.052,1.419.052,1.419l57.253,46.652,8.09-15.363Z" transform="translate(-335.527 -171.793)" fill="#2f2e41"/>
    <path id="Path_171" data-name="Path 171" d="M525.455,491.306a32.348,32.348,0,0,0,.616,4.3,25.39,25.39,0,0,0,1.98,5.939s0,2.111,4.04,9.181-1.01,4.04-4.04,9.292,0,2.828,3.363,6.2a7.722,7.722,0,0,1,1.909,7.606s43.391.03,51.471-3,9.918-20.1,2.677-21.786,2.192-3.363,6.444-7.252-4.252-10.252-4.252-10.252,3.5-6.05,3.212-26.362a40.032,40.032,0,0,0-.515-5.575,62.682,62.682,0,0,0-2.616-10.232,111.535,111.535,0,0,0-5.676-13.474c-1.172-2.373-2.374-4.636-3.525-6.717-.182-.323-.354-.636-.535-.949-2.192-3.879-4.192-7.05-5.515-9.08-1.02-1.576-1.636-2.464-1.636-2.464L565.5,403.9l-24.544,11.5,1.394,18.817L538.12,448.41l-1.949,6.535-1.5,5.04-2.323,7.807s.636.03-.121,1.071a34.485,34.485,0,0,0-6.575,15.827,32.222,32.222,0,0,0-.192,6.616Z" transform="translate(-144.906 -171.793)" fill="#6c63ff"/>
    <path id="Path_172" data-name="Path 172" d="M628.223,493.334l.461-.149,58.744-18.917-21.647-71.017a9.768,9.768,0,0,0-14.312-5.562l-37.54,22.179a14.715,14.715,0,0,0-6.319,17.788Z" transform="translate(-318.553 -171.793)" fill="#2f2e41"/>
    <path id="Path_173" data-name="Path 173" d="M627.842,497.849l59.217-19.069-21.647-71.017A9.768,9.768,0,0,0,651.1,402.2l-39.332,19.638c-5.909,3.49-5.771,12.524-3.027,19.936Z" transform="translate(-318.41 -171.793)" fill="#6c63ff"/>
    <path id="Path_174" data-name="Path 174" d="M631.48,502.989a11.291,11.291,0,0,0,9.05.9L678.38,491.7a11.7,11.7,0,0,0,7.575-14.49l-18.976-62.255a9.767,9.767,0,0,0-12.39-6.431L615.364,421.4a14.722,14.722,0,0,0-9.265,18.959l20.289,56.565a11.3,11.3,0,0,0,5.092,6.062Z" transform="translate(-316.12 -171.793)" fill="#3f3d56"/>
    <ellipse id="Ellipse_20" data-name="Ellipse 20" cx="27.11" cy="27.11" rx="27.11" ry="27.11" transform="translate(370.33 178.104)" fill="#ffb6b6"/>
    <path id="Path_175" data-name="Path 175" d="M610.177,404.525a23.51,23.51,0,0,1-11.546,10.793,27.033,27.033,0,0,1-6.222,1.969,24.325,24.325,0,0,0-2.879-6.816,20.082,20.082,0,0,1,0,7.2,23.9,23.9,0,0,1-9.663-1.2,20.726,20.726,0,0,1-13.034-13.2c-2.16-7.186.167-14.861.35-22.362s-3.373-16.474-10.82-17.4c-5.671-.708-4.97-.158-9.045,3.848,5.7,6.332-8.2,34.377-15.653,33.138-4.216-.7-7.318-4.048-8.152-3.932-4.27,10.456,8.574,25.286-1.613,30.154l.756-1c5.332-8.808-10.445-23.685-5.113-32.494,1.487-2.464,3.032-5.353,2.112-8.079-.873-2.592-5.293-3.412-6.226-1.053,1.516-5.407-2.716-11.753-8.338-12.3-4.994-.493-4.706.931-9.467,2.229a24.293,24.293,0,0,0-2.608-5.835,19.917,19.917,0,0,1,.139,6.3,7.855,7.855,0,0,1-4.941-1.046c-4.4-2.636-4.528-9.44-1.507-13.581s8.095-6.187,12.985-7.734c.045-10.342,27.872-15.292,32.99-5.678.526-7.785,9.45-13.029,17.138-11.707s13.752,7.487,17.45,14.357,5.532,14.552,8.238,21.865,6.575,14.6,13.055,18.943,16.109,4.727,21.52-.89a17.167,17.167,0,0,1,.094,15.523Z" transform="translate(-121.063 -171.793)" fill="#2f2e41"/>
    <path id="Path_176" data-name="Path 176" d="M676.422,528.5a9.79,9.79,0,0,0-1.815-1.149c-10.377-5.164-42.646-18.57-67.877-18.02-48.548,1.058-110.332,54.637-95.953,90.617,10.941,27.378,65.336,42.954,105.043,30.5C671.446,612.989,693.4,542.036,676.422,528.5Z" transform="translate(-215.125 -171.793)" fill="#3f3d56"/>
    <path id="Path_177" data-name="Path 177" d="M545.692,725.733c15.863-2.993,29.906-74.46-1.305-109.658-10.693-12.059-24.032-17.308-41.775-22.193-102.121-28.115-180.011-1.32-190.478,5.222-10.444,6.527-28.752,104.875-5.34,118.8,13.173,7.833,39.282,11.749,52.218,2.611,19.035-13.446-12.915-48.324,1.305-71.8,16.137-26.64,101.114-35.614,143.718-9.138C549.489,667.82,455.734,742.7,545.692,725.733Z" transform="translate(117.148 -171.793)" fill="#f2f2f2"/>
    <path id="Path_178" data-name="Path 178" d="M356.016,604.223h60.6c14.961-14.338,25.658-28.156,17.094-39.626a12.432,12.432,0,0,0-12.431-12.432H351.354A12.432,12.432,0,0,0,338.922,564.6C335.662,577.666,341.487,590.877,356.016,604.223Z" transform="translate(200.762 -171.793)" fill="#ccc"/>
    <path id="Path_179" data-name="Path 179" d="M342.728,536.515a2.807,2.807,0,0,0,2.035-4.866l-.192-.765.076-.184a7.539,7.539,0,0,1,13.907.052c2.275,5.478,5.17,10.966,5.883,16.758a22.3,22.3,0,0,1-.391,7.671,89.42,89.42,0,0,0,8.134-37.139,86.3,86.3,0,0,0-.535-9.628q-.443-3.931-1.231-7.807a90.455,90.455,0,0,0-17.938-38.337,24.073,24.073,0,0,1-10.012-10.387,18.363,18.363,0,0,1-1.67-5.018c.487.064,1.838-7.359,1.47-7.815.679-1.031,1.895-1.543,2.637-2.549,3.689-5,8.773-4.129,11.426,2.669,5.669,2.861,5.724,7.606,2.245,12.169-2.213,2.9-2.517,6.832-4.459,9.94.2.256.408.5.607.759a91.038,91.038,0,0,1,9.5,15.054,37.846,37.846,0,0,1,2.259-17.579c2.163-5.217,6.216-9.611,9.786-14.122,4.288-5.418,13.08-3.053,13.836,3.814q.011.1.021.2-.8.449-1.557.952a3.808,3.808,0,0,0,1.535,6.93l.078.012a37.891,37.891,0,0,1-1,5.665c4.58,17.71-5.307,24.16-19.424,24.45-.312.16-.615.32-.927.471a92.927,92.927,0,0,1,5,23.539,88.128,88.128,0,0,1-.064,14.231l.024-.168a23.289,23.289,0,0,1,7.95-13.448c6.118-5.026,14.762-6.877,21.363-10.917a4.371,4.371,0,0,1,6.694,4.252q-.013.088-.027.176a25.569,25.569,0,0,0-2.868,1.382q-.8.449-1.557.953a3.808,3.808,0,0,0,1.535,6.93l.078.012.16.024a37.921,37.921,0,0,1-6.975,10.923c-2.863,15.46-15.162,16.927-28.318,12.425h-.008a92.9,92.9,0,0,1-6.24,18.218H343.286c-.08-.248-.152-.5-.224-.751a25.328,25.328,0,0,0,6.169-.367c-1.654-2.03-3.308-4.075-4.962-6.1a1.377,1.377,0,0,1-.1-.12c-.839-1.039-1.686-2.069-2.525-3.108h0a37.1,37.1,0,0,1,1.087-9.451Z" transform="translate(224.935 -171.793)" fill="#ccc"/>
    <path id="Path_180" data-name="Path 180" d="M524.773,600.976a5.385,5.385,0,0,1-5.189,3.635l-22.233-.572a5.311,5.311,0,0,1-5.019-3.908l-3.146-33.643a8.219,8.219,0,0,1-3.557.731,8.108,8.108,0,0,1,.407-16.211,6.873,6.873,0,0,1,1.457.152,5.5,5.5,0,0,1,4.09-1.765l34.2.883a4.906,4.906,0,0,1,.844.1,5.341,5.341,0,0,1,4.09,6.936ZM488.54,564.2l-2.239-8.017a5.459,5.459,0,0,1-.017-2.832c-.109,0-.2-.052-.313-.052a5.8,5.8,0,0,0-.272,11.6,5.459,5.459,0,0,0,2.841-.7Z" transform="translate(-33.147 -171.793)" fill="#ccc"/>
    <path id="Path_181" data-name="Path 181" d="M518.677,550.382c-.729,4.166-8.92,7.095-18.77,6.586-9.058-.417-16.464-3.6-17.82-7.367a5.056,5.056,0,0,1,1.548-.206l34.2.883a4.909,4.909,0,0,1,.843.1Z" transform="translate(-25.199 -171.793)" fill="#fff"/>
    <path id="Path_182" data-name="Path 182" d="M974.375,727.311l-748.75.307a1.191,1.191,0,0,1,0-2.381l748.75-.307a1.191,1.191,0,0,1,0,2.381Z" transform="translate(-224.434 -171.793)" fill="#cacaca"/>
    <path id="Path_183" data-name="Path 183" d="M622.49,461.206a7.822,7.822,0,0,1,7.536,7.889,7.507,7.507,0,0,1-.133,1.233l23.5,13.873-2.844,14.4-30.135-22.485a7.8,7.8,0,0,1-5.737-7.6,7.465,7.465,0,0,1,7.61-7.317Q622.388,461.2,622.49,461.206Z" transform="translate(-292.5 -171.793)" fill="#ffb6b6"/>
    <path id="Path_184" data-name="Path 184" d="M560.221,494.279c.629-.842.9-1.195,1.042-1.1.368.222.014,3.2,2.6,8.383,3.643,7.285,41.844,18.442,41.844,18.442l4.7-8.611,20.688-37.84,7.131-30.33a13.529,13.529,0,0,0,.361-3.228,128.18,128.18,0,0,0-20.171-11.611,13.5,13.5,0,0,0-6.061,7.22l-14.241,39.929-5.683,15.942s-10.024-7.168-13.66-5.852-4.662-.532-2.289-6.475-1.189.174-5.334.563,0,0-1.962-2.522-14.645-3.94-14.645-3.94l-.27.563-4.915,10.11-1.407,2.9s5.211,5.653,6.468,6.78,1.653,1.056,1.035,2.349S558.038,497.19,560.221,494.279Z" transform="translate(-210.982 -171.793)" fill="#6c63ff"/>
  </g>
  <g id="undraw_happy_announcement_re_tsm0" transform="translate(0 3.728)">
    <path id="Path_185" data-name="Path 185" d="M538.567,682.174l7.985-26a87.77,87.77,0,0,0-35.084-23.506c13.124,21.743.407,50.108,5.706,74.946a52.794,52.794,0,0,0,28.277,35.978L557.569,758.6a88.466,88.466,0,0,0,6.5-73.787,85.453,85.453,0,0,0-9.894-19.018C546.976,674.261,538.567,682.174,538.567,682.174Z" transform="translate(-234.462 -135.193)" fill="#f2f2f2"/>
    <path id="Path_186" data-name="Path 186" d="M494.662,685.5l-4.451-26.836a87.771,87.771,0,0,0-41.885-5.392c21.444,13.608,22.711,44.667,38.532,64.535a52.794,52.794,0,0,0,41.355,19.591l17.541,8.034a88.466,88.466,0,0,0-27.088-68.942,85.453,85.453,0,0,0-17.337-12.609C498.659,674.664,494.662,685.5,494.662,685.5Z" transform="translate(-234.462 -135.193)" fill="#f2f2f2"/>
    <path id="Path_187" data-name="Path 187" d="M521.537,616.734h-12.3l-5.851-47.44h18.153Z" fill="#ffb6b6"/>
    <path id="Path_188" data-name="Path 188" d="M759.135,763.849H719.477v-.5a15.437,15.437,0,0,1,15.435-15.436h0l7.244-5.5,13.516,5.5h3.462Z" transform="translate(-234.462 -135.193)" fill="#2f2e41"/>
    <path id="Path_189" data-name="Path 189" d="M720.217,571.872l-8.386,9L673.137,552.8l12.377-13.278Z" fill="#ffb6b6"/>
    <path id="Path_190" data-name="Path 190" d="M965.538,712.9l-27.04,29.01-.367-.342a15.437,15.437,0,0,1-.768-21.816h0l.919-9.046,13.236-6.14,2.36-2.532Z" transform="translate(-234.462 -135.193)" fill="#2f2e41"/>
    <path id="Path_191" data-name="Path 191" d="M936.479,680.4l-13,27.189L843.65,654.738l-11.613-15.823-38.079-51.883-15.479,24.561-10.771,25.675h0a28.3,28.3,0,0,0-12.675,20.654l-.493,4.546,6.806,61.182-25.868,7.943L720.623,649.4l4.857-17.81,5-25,25.174-79h67.364l38.638,82.242,2.824,16.758,10.955,12.573Z" transform="translate(-234.462 -135.193)" fill="#2f2e41"/>
    <path id="Path_192" data-name="Path 192" d="M796.483,398.341l11.34,8.635,13.676,4.2s5.654,79.528,10.748,84.623.5,5.231,1.523,11.849,3.512,20.184,3.512,20.184c-34.387,18.2-64.032,18.691-87.845-2.609a5.931,5.931,0,0,1,3.236-6.695c4.432-2.352-4.086-13.328-.464-15.163s-1.472-17.755-1.472-17.755l3.342-33.216-2.64-5.31,6.443-32.489,11.18-4.083,4.466-10.76Z" transform="translate(-234.462 -135.193)" fill="#3f3d56"/>
    <path id="Path_193" data-name="Path 193" d="M803.587,539.69a9.83,9.83,0,0,1,11.207-10.08l15.982-31.064,8.9,15.82-16.541,27.073a9.884,9.884,0,0,1-19.551-1.749Z" transform="translate(-234.462 -135.193)" fill="#ffb6b6"/>
    <path id="Path_194" data-name="Path 194" d="M830.5,532.091l34.278-53.127-.113-.244c-.129-.28-7.892-17.045-15.413-32.4-1.158-2.365-2.311-4.7-3.429-6.928q-.724-1.445-1.426-2.83c-3.159-6.228-5.919-11.375-7.566-13.82a29.015,29.015,0,0,0-15.375-11.664l-.159-.041-.151.063a14.724,14.724,0,0,0-8.763,16.2,104.3,104.3,0,0,0,19.353,43.755l5.557,7.325-19.312,41.985Z" transform="translate(-234.462 -135.193)" fill="#3f3d56"/>
    <path id="Path_195" data-name="Path 195" d="M712.628,328.445a9.83,9.83,0,0,1-2.359,14.888l7.146,34.2-16.879-6.683-4.2-31.448a9.884,9.884,0,0,1,16.29-10.953Z" transform="translate(-234.462 -135.193)" fill="#ffb6b6"/>
    <path id="Path_196" data-name="Path 196" d="M696.505,351.3l6.826,62.857.242.119c.2.1,8.847,4.339,19.461,9.391,1.791.852,1.534,4.543,3.405,5.426,1.289.608,4.693-1.6,6-.988,11.6,5.426,23.334,10.7,28.01,12.131a29.016,29.016,0,0,0,19.289-.621l.149-.068.078-.144a14.724,14.724,0,0,0-3.392-18.1,104.3,104.3,0,0,0-42.586-21.8l-8.929-2.191-11.436-44.776Z" transform="translate(-234.462 -135.193)" fill="#3f3d56"/>
    <circle id="Ellipse_21" data-name="Ellipse 21" cx="22.431" cy="22.431" r="22.431" transform="translate(527.5 214.725)" fill="#ffb6b6"/>
    <path id="Path_197" data-name="Path 197" d="M762.123,357.318c1.845-5.367,11.027-9.089,25.914-9.606S806.7,364.738,806.7,364.738c9.938,8.062-10.612,29.645-11.606,28.868l.447-4.055c.74-6.717,3.885-11.957-.115-18.957l-3.841.044L776.7,373.5l5.873-5.171-.166-.256a22.727,22.727,0,0,1-8.017,2.434c-3.156.186-6.607-1.071-8.119-3.848a6.466,6.466,0,0,1-.725-2.46c-4.256,1.7-6.2,6.948-6.2,6.948S760.278,362.685,762.123,357.318Z" transform="translate(-234.462 -135.193)" fill="#2f2e41"/>
    <path id="Path_198" data-name="Path 198" d="M324.835,358.664a12.021,12.021,0,0,0-.981-1.1c.085-.117.171-.245.256-.363Z" transform="translate(-234.462 -135.193)" fill="#2f2e41"/>
    <path id="Path_199" data-name="Path 199" d="M329.2,448.88c-3.669,6.517-11,10.154-18.261,11.936a45.629,45.629,0,0,1-24.82-.48c-1.024-.331-2.048-.715-3.04-1.141a26.192,26.192,0,0,0,1.131-3.893,26.7,26.7,0,0,0,.555-5.45,17.206,17.206,0,0,1-3.1,4.277,15.7,15.7,0,0,1-3.253,2.613,31.947,31.947,0,0,1-9.44-8.768c.16-.395.32-.789.469-1.184a42.554,42.554,0,0,0,1.835-6.336,43.323,43.323,0,0,0,.907-8.864,27.851,27.851,0,0,1-5.056,6.954,22.673,22.673,0,0,1-1.941,1.845,25.523,25.523,0,0,1,1.536-19.637c4.224-7.808,12.416-12.448,19.711-17.493s14.613-11.872,15.232-20.735c.416-5.984-2.357-11.978-1.248-17.866a13.8,13.8,0,0,1,23.444-7.093c-4.139,5.866-8.256,11.936-9.93,18.911-1.707,7.1-.309,15.434,5.291,20.138,1.92,1.621,4.277,2.773,5.76,4.8,1.973,2.688,1.984,6.272,2.3,9.578.64,6.432,2.741,12.618,3.872,18.986S332.355,443.237,329.2,448.88Z" transform="translate(-234.462 -135.193)" fill="#2f2e41"/>
    <path id="Path_200" data-name="Path 200" d="M19.519,578.2l9.735,7.521L62.9,551.747l-14.368-11.1Z" fill="#a0616a"/>
    <path id="Path_201" data-name="Path 201" d="M254.4,706.039l16.1,10.972L265.4,723.6l6.823,21.409a5.2,5.2,0,0,1-8.141,5.7l-18.32-14.156,1.881-8.961-6.272,5.569-6.907-5.337Z" transform="translate(-234.462 -135.193)" fill="#2f2e41"/>
    <path id="Path_202" data-name="Path 202" d="M303.369,377.614A23.236,23.236,0,1,0,343.335,361.5l-.112-.111c-.186-.2-.372-.39-.567-.576a.009.009,0,0,1-.009-.009c-.242-.223-.483-.446-.734-.66-4.09-3.588-9.837-7.482-15.7-7.482C313.375,352.659,303.369,364.778,303.369,377.614Z" transform="translate(-234.462 -135.193)" fill="#2f2e41"/>
    <path id="Path_203" data-name="Path 203" d="M435.811,365.681a8.511,8.511,0,0,1-9.217,9.24l-57.538,51.951-9.9-15.638,59.672-46.149a8.557,8.557,0,0,1,16.985.6Z" transform="translate(-234.462 -135.193)" fill="#a0616a"/>
    <path id="Path_204" data-name="Path 204" d="M344.465,442.554s2.141,3.954,9.454-2.151c5.854-4.888,33.9-26.107,39.945-34.8a6.686,6.686,0,0,0,7.872-2.286l-16.556-14.5c-4.954.57-4.847,3.9-4.332,5.787L368.36,400.26l-32.25,20.61,6.756,18.854Z" transform="translate(-234.462 -135.193)" fill="#6c63ff"/>
    <path id="Path_205" data-name="Path 205" d="M78.761,343.789l-1.206,5.743-1.024,21.184,45.084,2.478-1.4-32.582-4.37-7.18Z" fill="#a0616a"/>
    <circle id="Ellipse_22" data-name="Ellipse 22" cx="19.485" cy="19.485" r="19.485" transform="translate(78.384 228.313)" fill="#a0616a"/>
    <path id="Path_206" data-name="Path 206" d="M297.737,454.858l-.12-16.2a25.776,25.776,0,0,1,19.962-25.124l.074-.017,3.853-5.191,15.653,1.566,2.869,5.864,11.343,6.754,4.367,14.039a16.6,16.6,0,0,1,7.174,11.119c1.483,9.471-5.148,18.947-5.937,20.033l-2.032,11.446-44.21,7.8-.359.045Z" transform="translate(-234.462 -135.193)" fill="#6c63ff"/>
    <path id="Path_207" data-name="Path 207" d="M356.173,379.517a66.432,66.432,0,0,1-7.061,3.893,40.633,40.633,0,0,1-7.7,2.784,26.617,26.617,0,0,0-2.773-4.725,17.183,17.183,0,0,1,.021,5.28,27.507,27.507,0,0,1-13.13-1.077l-3.669-6.154-.277,6.869c-3.04.555-6.069,1.077-9.109,1.621-.181.021-.363.064-.533.1-1.888-8.512.789-17.887,6.741-23.562a21.445,21.445,0,0,1,22.527-4.373c.48.192.971.405,1.44.629a.01.01,0,0,0,0,.008.01.01,0,0,0,.008,0c.277.139.512.469.821.437C356.791,359.763,357.218,370.087,356.173,379.517Z" transform="translate(-234.462 -135.193)" fill="#2f2e41"/>
    <path id="Path_208" data-name="Path 208" d="M89.3,553.071l9.75,7.5,33.576-34.037-14.39-11.071Z" fill="#a0616a"/>
    <path id="Path_209" data-name="Path 209" d="M325.042,681.594l16.12,10.939-5.081,6.6,6.866,21.395a5.2,5.2,0,0,1-8.129,5.715l-18.349-14.119,1.863-8.965-6.261,5.581-6.918-5.323Z" transform="translate(-234.462 -135.193)" fill="#2f2e41"/>
    <path id="Path_210" data-name="Path 210" d="M292.12,646.722v-.127l4.621-7.963-4.718-10.365-.142-26.631.765-4a33.631,33.631,0,0,0-.872-16.159h0l-.086-16.21c-.166-4.061,6.125-7.632,4.658-11.018-13.866-32,14.16-56.41,14.349-56.606l.573-.6,3.107,2.354,2.958,0,39.912,7.273.288.537c1.57,2.944,4.6,13.093,4.779,17.686,1.989,2.3,24.647,28.521,26.661,30.343,13.611,12.315,21.4,32.7,24.837,43.753a17.555,17.555,0,0,1-3.006,16.143l-51.527,56.439-13.866-12.8,27.881-50.805-2.01-5.155a15.843,15.843,0,0,1-9.237-5.366l-5.646-6.7a12.529,12.529,0,0,1-2.86-6.517l-3.424-.412L337.851,570.95,329.343,648l-2.313,6.087-40.284,47.359-17.067-10.667Z" transform="translate(-234.462 -135.193)" fill="#2f2e41"/>
    <path id="Path_211" data-name="Path 211" d="M285.968,315.87a8.511,8.511,0,0,0,2.623,12.785l-12.809,37.922,10.46,40.187,16.866-7.625L292.7,368.827l7.787-44.122a8.557,8.557,0,0,0-14.519-8.835Z" transform="translate(-234.462 -135.193)" fill="#a0616a"/>
    <path id="Path_212" data-name="Path 212" d="M301.407,439.876s-3.961,2.127-6.716-6.992c-2.206-7.3-17.215-46.94-17.486-57.526a6.686,6.686,0,0,1-5.321-6.236l21.8-3.017c3.825,3.2,1.908,5.92.439,7.215l7.425,12.577,15.519,33.953L304.3,438.389Z" transform="translate(-234.462 -135.193)" fill="#6c63ff"/>
    <path id="Path_213" data-name="Path 213" d="M312.468,388.005a39.634,39.634,0,0,1,30.514-26.517c.028-.009.121-.046.242-.1.074-.047.167-.093.26-.139-.279-.158-.548-.3-.827-.437a.009.009,0,0,1-.009-.009c-.242-.223-.483-.446-.734-.66l-.706.028S316.381,356.237,312.468,388.005Z" transform="translate(-234.462 -135.193)" fill="#fd6584"/>
    <ellipse id="Ellipse_23" data-name="Ellipse 23" cx="8.857" cy="10.195" rx="8.857" ry="10.195" transform="translate(376.464 466.022) rotate(-56.364)" fill="#f2f2f2"/>
    <ellipse id="Ellipse_24" data-name="Ellipse 24" cx="8.857" cy="10.195" rx="8.857" ry="10.195" transform="translate(321.465 314.021) rotate(-56.364)" fill="#f2f2f2"/>
    <ellipse id="Ellipse_25" data-name="Ellipse 25" cx="8.857" cy="10.195" rx="8.857" ry="10.195" transform="translate(551.465 548.023) rotate(-56.364)" fill="#f2f2f2"/>
    <ellipse id="Ellipse_26" data-name="Ellipse 26" cx="8.857" cy="10.195" rx="8.857" ry="10.195" transform="translate(86.464 59.019) rotate(-56.364)" fill="#f2f2f2"/>
    <ellipse id="Ellipse_27" data-name="Ellipse 27" cx="8.857" cy="10.195" rx="8.857" ry="10.195" transform="translate(303.465 11.019) rotate(-56.364)" fill="#f2f2f2"/>
    <ellipse id="Ellipse_28" data-name="Ellipse 28" cx="8.857" cy="10.195" rx="8.857" ry="10.195" transform="translate(200.763 413.735) rotate(-56.364)" fill="#e6e6e6"/>
    <path id="Path_214" data-name="Path 214" d="M904.729,764.807H254.435a1.191,1.191,0,1,1,0-2.381H904.729a1.191,1.191,0,0,1,0,2.381Z" transform="translate(-234.462 -135.193)" fill="#ccc"/>
    <path id="Path_215" data-name="Path 215" d="M375.47,369.355a22.24,22.24,0,0,1-22.045-19.831l-12.7-117.906a22.23,22.23,0,0,1,19.7-24.455l376.954-40.588a22.23,22.23,0,0,1,24.456,19.7l12.7,117.906a22.231,22.231,0,0,1-19.7,24.456l-.054-.5.054.5L377.881,369.225A22.5,22.5,0,0,1,375.47,369.355Z" transform="translate(-234.462 -135.193)" fill="#e6e6e6"/>
    <path id="Path_216" data-name="Path 216" d="M733.233,172.048a19.856,19.856,0,0,0-2.12.114L367.749,211.287a19.459,19.459,0,0,0-17.264,21.431l6.419,59.615a73.811,73.811,0,0,0,81.29,65.486L693.7,330.308a73.588,73.588,0,0,0,65.287-81.043l-6.443-59.838a19.463,19.463,0,0,0-19.31-17.378Z" transform="translate(-234.462 -135.193)" fill="#fff"/>
    <circle id="Ellipse_29" data-name="Ellipse 29" cx="8" cy="8" r="8" transform="translate(125.018 85.4)" fill="#3f3d56"/>
    <circle id="Ellipse_30" data-name="Ellipse 30" cx="8" cy="8" r="8" transform="translate(483.018 45.4)" fill="#3f3d56"/>
    <path id="Path_220" data-name="Path 220" d="M617.323,360.829a6.587,6.587,0,0,1-2.236-5.2,87.659,87.659,0,0,0-5.63-34.077,6.587,6.587,0,0,1,.446-5.639,6.439,6.439,0,0,1,4.449-3.13c9.3-5.611,18.831-7.187,28.338-4.681a6.515,6.515,0,0,1,7.163,4.491,144.982,144.982,0,0,1,6.365,38.525,6.514,6.514,0,0,1-5.446,6.575l-28.133,4.648A6.438,6.438,0,0,1,617.323,360.829Z" transform="translate(-234.462 -135.193)" fill="#6c63ff"/>
    <path id="Path_221" data-name="Path 221" d="M619.821,326.974l23.679-3.912a1.5,1.5,0,0,0-.489-2.96l-23.679,3.912a1.5,1.5,0,0,0,.489,2.96Z" transform="translate(-234.462 -135.193)" fill="#fff"/>
    <path id="Path_222" data-name="Path 222" d="M621.777,338.813l23.679-3.912a1.5,1.5,0,0,0-.489-2.96l-23.679,3.912a1.5,1.5,0,0,0,.489,2.96Z" transform="translate(-234.462 -135.193)" fill="#fff"/>
    <path id="Path_223" data-name="Path 223" d="M623.733,350.653l23.679-3.912a1.5,1.5,0,1,0-.489-2.96l-23.679,3.912a1.5,1.5,0,0,0,.489,2.96Z" transform="translate(-234.462 -135.193)" fill="#fff"/>
    <text id="Welcome_to_Calas_Room_Study" data-name="Welcome  to Calas Room Study" transform="matrix(0.999, -0.035, 0.035, 0.999, 130.656, 137.518)" fill="#707070" font-size="30" font-family="Calibri-Bold, Calibri" font-weight="700"><tspan x="0" y="0" xml:space="preserve">Welcome  to Calas Room Study</tspan></text>
  </g>
</svg>

