<?xml version="1.0" standalone="no"?>
<svg viewBox="0 0 200 200" xmlns="http://www.w3.org/2000/svg">
  <path fill="#FF0066" d="M39.4,-64.6C46.1,-57.1,42.8,-37.6,50.8,-22.5C58.8,-7.4,77.9,3.3,77.3,11.5C76.8,19.8,56.6,25.7,43.8,34.9C31,44.1,25.7,56.7,16.8,61.3C7.8,65.8,-4.7,62.3,-20.1,61.1C-35.5,60,-53.7,61.2,-60.9,52.8C-68.1,44.5,-64.2,26.6,-61.2,12.1C-58.1,-2.4,-55.9,-13.4,-52.4,-25.1C-48.9,-36.8,-44.2,-49.1,-35.2,-55.5C-26.3,-61.9,-13.1,-62.4,1.6,-64.9C16.4,-67.5,32.8,-72.1,39.4,-64.6Z" transform="translate(100 100)" />
</svg>
