<?xml version="1.0" standalone="no"?>
<svg viewBox="0 0 200 200" xmlns="http://www.w3.org/2000/svg">
  <path fill="#F2F4F8" d="M37.2,-66.1C47.6,-58.4,54.9,-47.2,60,-35.6C65.1,-24,68,-12,72,2.3C75.9,16.5,80.9,33,75.9,44.8C70.8,56.6,55.8,63.7,41.5,71.5C27.2,79.3,13.6,87.9,1.4,85.5C-10.9,83.1,-21.7,69.8,-35.1,61.5C-48.6,53.1,-64.5,49.8,-75.5,40.4C-86.4,31,-92.3,15.5,-88,2.5C-83.7,-10.5,-69.1,-21,-59.8,-33.3C-50.6,-45.6,-46.5,-59.6,-37.5,-68.1C-28.4,-76.5,-14.2,-79.3,-0.4,-78.7C13.4,-78,26.8,-73.8,37.2,-66.1Z" transform="translate(100 100)" />
</svg>
